# xmcd
#
# Track frame offsets: 
#        150
#        17879
#        38876
#        63977
#
# Disc length: 1079 seconds
#
# Revision: 3
# Processed by: cddbd v1.5.2PL0 Copyright (c) Steve Scherf et al.
# Submitted via: ExactAudioCopyFreeDBPlugin 1.0
#
DISCID=2d043504
DTITLE=Mirco Nontschew - I Found Love (When I Found You)
DYEAR=1996
DGENRE=Blues
TTITLE0=I Found Love (When I Found You) (Radio Edit)
TTITLE1=I Found Love (When I Found You) (Extended)
TTITLE2=I Found Love (When I Found You) (Club House Mix)
TTITLE3=I Found Love (When I Found You) (Radio House)
EXTD=
EXTT0=
EXTT1=
EXTT2=
EXTT3=
PLAYORDER=
